<?xml version="1.0" encoding="utf-8"?>
<!-- Generator: Adobe Illustrator 25.1.0, SVG Export Plug-In . SVG Version: 6.00 Build 0)  -->
<svg version="1.1" id="Capa_1" xmlns="http://www.w3.org/2000/svg" xmlns:xlink="http://www.w3.org/1999/xlink" x="0px" y="0px"
	 viewBox="0 0 512 512" style="enable-background:new 0 0 512 512;" xml:space="preserve">
<style type="text/css">
	.st0{fill:#FFFFFF;}
</style>
<g id="outline">
	<path class="st0" d="M477.6,167.2l-22.3-15.7l-0.3-27.3c0-3.3-2.1-6.2-5.1-7.4l-25.4-9.9l-6.8-26.5c-0.8-3.2-3.5-5.5-6.7-5.9
		l-27.1-3.6l-12.9-24.1c-1.5-2.9-4.7-4.5-7.9-4.2l-27.2,3l-18.3-20.3c-2.2-2.4-5.6-3.3-8.7-2.1l-25.6,9.4l-22.7-15.3
		c-2.7-1.8-6.2-1.8-8.9,0l-22.7,15.3l-25.6-9.5c-3.1-1.1-6.5-0.3-8.7,2.1l-18.3,20.3l-27.2-3c-3.2-0.4-6.4,1.3-7.9,4.2l-12.9,24.1
		l-27.1,3.6c-3.2,0.4-5.9,2.8-6.7,5.9l-6.8,26.5l-25.4,9.9c-3,1.2-5.1,4.1-5.1,7.4l-0.3,27.3l-22.3,15.7c-2.7,1.9-3.9,5.2-3.2,8.4
		l6.3,26.6l-17.9,20.7c-2.1,2.5-2.6,6-1.1,8.9L31,256l-12.5,24.3c-1.5,2.9-1.1,6.4,1.1,8.9l17.9,20.7l-6.3,26.6
		c-0.7,3.2,0.5,6.5,3.2,8.4l22.3,15.7l0.3,27.3c0,3.3,2.1,6.2,5.1,7.4l25.5,9.9l6.8,26.5c0.8,3.2,3.5,5.5,6.7,5.9l27.1,3.6
		l12.9,24.1c1.5,2.9,4.7,4.5,7.9,4.2l27.2-3l18.3,20.3c2.2,2.4,5.6,3.3,8.7,2.1l25.6-9.4l22.7,15.3c2.7,1.8,6.2,1.8,8.9,0l22.7-15.3
		l25.6,9.5c3.1,1.1,6.5,0.3,8.7-2.1l18.3-20.3l27.2,3c3.2,0.4,6.4-1.3,7.9-4.2l12.9-24.1l27.1-3.6c3.2-0.4,5.9-2.8,6.7-5.9l6.8-26.5
		l25.4-9.9c3-1.2,5.1-4.1,5.1-7.4l0.3-27.3l22.3-15.7c2.7-1.9,3.9-5.2,3.2-8.4l-6.3-26.6l17.9-20.7c2.1-2.5,2.6-6,1.1-8.9L481,256
		l12.5-24.3c1.5-2.9,1.1-6.4-1.1-8.9l-17.9-20.7l6.3-26.6C481.5,172.4,480.3,169.1,477.6,167.2z M476.8,229.2l-11.9,23.2
		c-1.2,2.3-1.2,5,0,7.3l11.9,23.2l-17,19.7c-1.7,1.9-2.3,4.6-1.7,7.1l6,25.3l-21.3,15c-2.1,1.5-3.4,3.9-3.4,6.4l-0.3,26l-24.2,9.5
		c-2.4,0.9-4.2,3-4.8,5.5l-6.5,25.2l-25.8,3.4c-2.6,0.3-4.8,1.9-6,4.1l-12.3,22.9l-25.9-2.9c-2.6-0.3-5.1,0.7-6.8,2.6l-17.5,19.3
		l-24.4-9c-2.4-0.9-5.1-0.6-7.2,0.9L256,478.4l-21.6-14.5c-2.1-1.4-4.8-1.8-7.2-0.9l-24.4,9l-17.5-19.3c-1.7-1.9-4.3-2.9-6.8-2.6
		l-25.9,2.9L140.3,430c-1.2-2.3-3.4-3.8-6-4.1l-25.8-3.4l-6.5-25.2c-0.6-2.5-2.4-4.5-4.8-5.5L73,382.3l-0.3-26c0-2.6-1.3-5-3.4-6.4
		l-21.3-15l6-25.3c0.6-2.5-0.1-5.1-1.7-7.1l-17-19.7l11.9-23.2c1.2-2.3,1.2-5,0-7.3l-11.9-23.2l17-19.7c1.7-1.9,2.3-4.6,1.7-7.1
		l-6-25.3l21.3-15c2.1-1.5,3.4-3.9,3.4-6.4l0.3-26l24.2-9.5c2.4-0.9,4.2-3,4.8-5.5l6.5-25.2l25.8-3.4c2.6-0.3,4.8-1.9,6-4.1
		l12.3-22.9l25.9,2.9c2.6,0.3,5.1-0.7,6.8-2.6l17.5-19.3l24.4,9c2.4,0.9,5.1,0.6,7.2-0.9L256,33.6l21.6,14.5
		c2.1,1.4,4.8,1.8,7.2,0.9l24.4-9l17.5,19.3c1.7,1.9,4.3,2.9,6.8,2.6l25.9-2.9L371.7,82c1.2,2.3,3.4,3.8,6,4.1l25.8,3.4l6.5,25.2
		c0.6,2.5,2.4,4.5,4.8,5.5l24.2,9.5l0.3,26c0,2.6,1.3,5,3.4,6.4l21.3,15l-6,25.3c-0.6,2.5,0.1,5.1,1.7,7.1L476.8,229.2z"/>
	<path class="st0" d="M400,256v0.3h16V256c0-5.6-0.3-11.2-0.9-16.7l-15.9,1.7C399.7,245.9,400,251,400,256z"/>
	<path class="st0" d="M124.3,314.4l-14.6,6.5c2.3,5.1,4.8,10.1,7.6,14.9l13.9-8C128.7,323.5,126.4,319,124.3,314.4z"/>
	<path class="st0" d="M148.8,374.8c4.1,3.7,8.5,7.3,13,10.6l9.4-12.9c-4.1-3-8-6.1-11.7-9.5L148.8,374.8z"/>
	<path class="st0" d="M363,159.7c3.4,3.7,6.5,7.6,9.5,11.7l12.9-9.4c-3.3-4.5-6.8-8.9-10.5-13L363,159.7z"/>
	<path class="st0" d="M206.3,408.1c5.3,1.7,10.7,3.2,16.2,4.4l3.3-15.6c-4.9-1-9.8-2.4-14.5-3.9L206.3,408.1z"/>
	<path class="st0" d="M396.9,226.1l15.7-3.3c-1.2-5.5-2.6-10.9-4.3-16.2l-15.2,4.9C394.5,216.3,395.8,221.1,396.9,226.1z"/>
	<path class="st0" d="M387.6,197.4l14.6-6.5c-2.3-5.1-4.8-10.1-7.6-14.9l-13.9,8C383.3,188.4,385.6,192.8,387.6,197.4z"/>
	<path class="st0" d="M239,415.1c5.6,0.6,11.1,0.9,16.7,0.9l0-16c-5,0-10.1-0.3-15.1-0.8L239,415.1z"/>
	<path class="st0" d="M139.4,340.5l-12.9,9.4c3.3,4.5,6.8,8.9,10.5,13l11.9-10.7C145.5,348.5,142.3,344.6,139.4,340.5z"/>
	<path class="st0" d="M363.1,137.1c-4.1-3.7-8.5-7.3-13-10.5l-9.4,12.9c4.1,3,8,6.1,11.7,9.5L363.1,137.1z"/>
	<path class="st0" d="M336.1,117.4c-4.8-2.8-9.8-5.3-14.9-7.6l-6.5,14.6c4.6,2,9.1,4.3,13.4,6.9L336.1,117.4z"/>
	<path class="st0" d="M211.6,119l-4.9-15.2c-5.3,1.7-10.5,3.7-15.6,6l6.5,14.6C202.1,122.3,206.8,120.5,211.6,119z"/>
	<path class="st0" d="M241,112.8l-1.6-15.9c-5.6,0.6-11.1,1.4-16.5,2.6l3.3,15.7C231.1,114.1,236,113.3,241,112.8z"/>
	<path class="st0" d="M272.8,96.9c-5.6-0.6-11.1-0.9-16.7-0.9l0,16c5,0,10.1,0.3,15.1,0.8L272.8,96.9z"/>
	<path class="st0" d="M305.5,103.8c-5.3-1.7-10.7-3.2-16.2-4.3l-3.3,15.7c4.9,1,9.8,2.3,14.6,3.9L305.5,103.8z"/>
	<path class="st0" d="M372.4,340.9l12.9,9.4c3.3-4.5,6.3-9.2,9.2-14l-13.8-8C378.1,332.6,375.3,336.8,372.4,340.9z"/>
	<path class="st0" d="M327.8,380.9l8,13.9c4.8-2.8,9.5-5.8,14.1-9.1l-9.4-13C336.4,375.6,332.1,378.4,327.8,380.9z"/>
	<path class="st0" d="M175.8,394.5c4.8,2.8,9.8,5.4,14.9,7.6l6.5-14.6c-4.6-2.1-9.1-4.3-13.4-6.9L175.8,394.5z"/>
	<path class="st0" d="M352.2,363.2l10.7,11.9c4.2-3.7,8.1-7.7,11.9-11.8l-11.9-10.7C359.5,356.3,355.9,359.8,352.2,363.2z"/>
	<path class="st0" d="M387.5,314.8l14.6,6.5c2.3-5.1,4.3-10.3,6-15.6l-15.2-5C391.3,305.6,389.5,310.3,387.5,314.8z"/>
	<path class="st0" d="M300.3,393.1l4.9,15.2c5.3-1.7,10.5-3.7,15.7-6l-6.5-14.6C309.8,389.7,305.1,391.5,300.3,393.1z"/>
	<path class="st0" d="M115.1,225.9l-15.6-3.3c-1.2,5.5-2,11-2.6,16.5l15.9,1.7C113.3,235.8,114.1,230.8,115.1,225.9z"/>
	<path class="st0" d="M112,256v-0.2H96v0.2c0,5.5,0.3,11,0.8,16.5l15.9-1.6C112.3,265.9,112,261,112,256z"/>
	<path class="st0" d="M270.8,399.2l1.6,15.9c5.6-0.6,11.1-1.4,16.5-2.6l-3.3-15.7C280.8,398,275.8,398.7,270.8,399.2z"/>
	<path class="st0" d="M124.5,197.3l-14.6-6.5c-2.3,5.1-4.3,10.3-6,15.6l15.2,5C120.6,206.6,122.4,201.9,124.5,197.3z"/>
	<path class="st0" d="M115.1,285.8l-15.7,3.3c1.2,5.5,2.6,10.9,4.3,16.2l15.2-4.9C117.4,295.6,116.1,290.7,115.1,285.8z"/>
	<path class="st0" d="M396.8,286.3l15.6,3.3c1.2-5.5,2-11,2.6-16.5l-15.9-1.7C398.7,276.4,397.9,281.3,396.8,286.3z"/>
	<path class="st0" d="M159.7,148.9L149,137c-4.1,3.7-8.1,7.7-11.8,11.8l11.9,10.7C152.4,155.8,156,152.3,159.7,148.9z"/>
	<path class="st0" d="M139.6,171.3l-12.9-9.4c-3.3,4.5-6.3,9.2-9.1,14l13.8,8C133.8,179.5,136.6,175.3,139.6,171.3z"/>
	<path class="st0" d="M184.1,131.2l-8-13.9c-4.8,2.8-9.5,5.8-14,9.1l9.4,12.9C175.5,136.5,179.7,133.7,184.1,131.2z"/>
	<path class="st0" d="M384,256c0-70.7-57.3-128-128-128s-128,57.3-128,128s57.3,128,128,128C326.7,383.9,383.9,326.7,384,256z
		 M256,368c-61.9,0-112-50.1-112-112s50.1-112,112-112s112,50.1,112,112C367.9,317.8,317.8,367.9,256,368z"/>
	<path class="st0" d="M329,207c-9.4-9.4-24.6-9.4-33.9,0l-71,71l-15-15c-9.4-9.4-24.6-9.4-33.9,0c-9.4,9.4-9.4,24.6,0,33.9l0,0
		l32,32c9.4,9.4,24.6,9.4,33.9,0c0,0,0,0,0,0l88-88C338.3,231.6,338.3,216.4,329,207C329,207,329,207,329,207z M317.7,229.7l-88,88
		c-3.1,3.1-8.2,3.1-11.3,0l-32-32c-3.1-3.2-3-8.2,0.1-11.3c3.1-3,8.1-3,11.2,0l20.7,20.7c3.1,3.1,8.2,3.1,11.3,0l76.7-76.7
		c3.1-3.2,8.1-3.3,11.3-0.2c3.2,3.1,3.3,8.1,0.2,11.3C317.8,229.5,317.7,229.6,317.7,229.7L317.7,229.7z"/>
	<path class="st0" d="M256,64C150.1,64,64,150.1,64,256s86.1,192,192,192s192-86.1,192-192S361.9,64,256,64z M256,432
		c-97,0-176-79-176-176S159,80,256,80s176,79,176,176S353,432,256,432z"/>
</g>
</svg>
