<?xml version="1.0" encoding="utf-8"?>
<!-- Generator: Adobe Illustrator 25.4.1, SVG Export Plug-In . SVG Version: 6.00 Build 0)  -->
<svg version="1.1" id="Capa_1" xmlns="http://www.w3.org/2000/svg" xmlns:xlink="http://www.w3.org/1999/xlink" x="0px" y="0px"
	 viewBox="0 0 140 140" style="enable-background:new 0 0 140 140;" xml:space="preserve">
<style type="text/css">
	.st0{fill:#986B54;}
	.st1{fill:#845C47;}
	.st2{fill:#D8AA8B;}
	.st3{fill:#CE9875;}
</style>
<g>
	<g>
		<path class="st0" d="M112.7,28.3L87.3,8.1c-5-3.9-11.1-6.1-17.4-6.1S57.4,4.2,52.5,8.1L27.1,28.3H112.7L112.7,28.3z"/>
	</g>
	<g>
		<path class="st1" d="M87.2,8.1c-4.9-3.9-11.1-6.1-17.4-6.1c-2.1,0-4.2,0.2-6.2,0.7c4.1,0.9,7.9,2.7,11.2,5.4l25.4,20.2h12.4
			L87.2,8.1z"/>
	</g>
	<g>
		<path class="st2" d="M128.4,127c-2.7-3.7-4.4-8.1-4.8-12.6l-5.2-64H21.2l-5.2,64c-0.4,4.6-2,8.9-4.8,12.6
			c-0.9,1.2-1.3,2.6-1.3,4.1c0,3.8,3.1,6.9,6.9,6.9h106.2c3.8,0,6.9-3.1,6.9-6.9C129.8,129.6,129.3,128.2,128.4,127z"/>
	</g>
	<g>
		<path class="st3" d="M128.4,127c-2.7-3.7-4.4-8.1-4.8-12.6l-5.2-64H21.2l-0.6,7.7h85.7c2.9,0,5.3,2.2,5.5,5.1l4.2,51.2
			c0.4,4.5,2,8.9,4.8,12.6c0.9,1.2,1.3,2.6,1.3,4.1c0,3.8-3.1,6.9-6.9,6.9h7.7c3.8,0,6.9-3.1,6.9-6.9
			C129.8,129.6,129.3,128.2,128.4,127L128.4,127z"/>
	</g>
	<g>
		<path class="st2" d="M118.5,50.4H21.2c-3.1,0-5.5-2.5-5.5-5.5v-11c0-3.1,2.5-5.5,5.5-5.5h97.2c3.1,0,5.5,2.5,5.5,5.5v11
			C124,47.9,121.5,50.4,118.5,50.4z"/>
	</g>
	<g>
		<path class="st3" d="M118.5,28.3h-6.9c3.1,0,5.5,2.5,5.5,5.5v11c0,3.1-2.5,5.5-5.5,5.5h6.9c3.1,0,5.5-2.5,5.5-5.5v-11
			C124,30.8,121.5,28.3,118.5,28.3z"/>
	</g>
	<g>
		<path d="M131.4,128.3c-0.3-0.9-0.7-1.7-1.3-2.5c-2.5-3.4-4-7.4-4.3-11.6l-0.4-4.2c-0.1-1.1-1.1-2-2.2-1.9c-1.1,0.1-2,1.1-1.9,2.2
			l0.4,4.2c0.4,4.9,2.2,9.7,5.1,13.7c0.3,0.4,0.5,0.9,0.7,1.4c0.2,0.5,0.2,1,0.2,1.5c0,2.7-2.2,4.8-4.8,4.8H16.8
			c-1.3,0-2.5-0.5-3.4-1.4c-0.9-0.9-1.4-2.1-1.4-3.4c0-0.5,0.1-1,0.2-1.5c0.2-0.5,0.4-0.9,0.7-1.3c3-4,4.7-8.7,5.1-13.7l1.8-22.4
			C20,91,19.2,90,18,89.9c-1.1-0.1-2.1,0.7-2.2,1.9L14,114.2c-0.4,4.2-1.9,8.2-4.3,11.6c-0.6,0.8-1,1.6-1.3,2.5
			c-0.3,0.9-0.5,1.8-0.5,2.8c0,2.4,0.9,4.6,2.6,6.3c1.7,1.7,3.9,2.6,6.3,2.6h106.2c4.9,0,8.9-4,8.9-8.9
			C131.8,130.1,131.7,129.2,131.4,128.3L131.4,128.3z"/>
		<path d="M19.1,52.1l-2.5,30.2c-0.1,1.1,0.7,2.1,1.9,2.2c1.1,0.1,2.1-0.7,2.2-1.9l2.5-30.2h93.4l3.9,48.4c0.1,1.1,1,1.9,2.1,1.9
			c0.1,0,0.1,0,0.2,0c1.1-0.1,2-1.1,1.9-2.2l-3.9-48.4c3.1-1,5.4-3.8,5.4-7.2v-11c0-4.2-3.4-7.6-7.6-7.6h-5.1L88.6,6.5
			C83.2,2.3,76.6,0,69.9,0c-6.8,0-13.4,2.3-18.7,6.5L26.3,26.2h-5.1c-4.2,0-7.6,3.4-7.6,7.6v11C13.7,48.3,15.9,51.2,19.1,52.1
			L19.1,52.1z M17.8,33.8c0-1.9,1.6-3.5,3.5-3.5h67.4c1.1,0,2.1-0.9,2.1-2.1c0-1.1-0.9-2.1-2.1-2.1H32.9L53.7,9.7
			C58.3,6.1,64,4.1,69.9,4.1c5.8,0,11.6,2,16.1,5.6l20.8,16.5h-8.6c-1.1,0-2.1,0.9-2.1,2.1c0,1.1,0.9,2.1,2.1,2.1h20.3
			c1.9,0,3.5,1.6,3.5,3.5v11c0,1.9-1.6,3.5-3.5,3.5H21.2c-1.9,0-3.5-1.6-3.5-3.5V33.8z"/>
	</g>
</g>
</svg>
